<svg xmlns="http://www.w3.org/2000/svg" xmlns:xlink="http://www.w3.org/1999/xlink" width="30" height="30"><defs><symbol id="icon-speed" viewBox="0 0 24 24"><path d="M12 2C5.363 2 0 7.363 0 14c0 2.62.86 5.125 2.28 7.094l1.626-1.188c-.996-1.38-1.66-3.093-1.844-4.906H3v-2h-.97c.197-2.023 1.013-3.867 2.22-5.344l.656.657 1.407-1.407-.657-.656C7.136 5.047 8.976 4.258 11 4.062V5h2v-.938c2.023.196 3.863.985 5.344 2.188l-.657.656 1.407 1.407.656-.657c1.207 1.477 2.023 3.32 2.22 5.344H21v2h.938c-.184 1.813-.848 3.527-1.844 4.906l1.625 1.188C23.14 19.124 24 16.62 24 14c0-6.637-5.363-12-12-12zm5.688 6.313l-5.47 3.718c-.073-.007-.144-.03-.218-.03-1.105 0-2 .895-2 2s.895 2 2 2 2-.895 2-2c0-.074-.023-.145-.03-.22z"/></symbol></defs><g><use xlink:href="#icon-speed" width="24" height="24" x="3" y="3"/></g></svg>