<svg xmlns="http://www.w3.org/2000/svg" xmlns:xlink="http://www.w3.org/1999/xlink" width="30" height="30"><defs><symbol id="icon-user-avatar" viewBox="0 0 26 26"><path d="M13 .156c-3.176 0-5.906 2.14-5.906 6.25 0 2.684 1.258 5.41 2.906 7.094.266.7.22 1.223.063 1.594.214.29 1.05 1.133 2.437 1.312-.512.578-1.18 1.774-1.72 2.97C9.743 17.9 9 16 9 16c-3.27 1.22-6.97 3.36-6.97 5.47v.81c0 2.947 5.712 3.595 11 3.595 5.298 0 10.94-.648 10.94-3.594v-.81c0-2.142-3.626-4.255-7-5.44 0 0-.72 1.884-1.75 3.345-.54-1.2-1.204-2.39-1.72-2.97 1.336-.163 2.148-.948 2.406-1.28-.11-.363-.125-.867.125-1.625 1.638-1.688 2.876-4.422 2.876-7.094 0-4.105-2.73-6.25-5.906-6.25z"/></symbol></defs><g><use xlink:href="#icon-user-avatar" width="24" height="24" x="3" y="3"/></g></svg>